<?xml version="1.0" standalone="no"?>
<!DOCTYPE svg PUBLIC "-//W3C//DTD SVG 20010904//EN"
 "http://www.w3.org/TR/2001/REC-SVG-20010904/DTD/svg10.dtd">
<svg version="1.0" xmlns="http://www.w3.org/2000/svg"
 width="16.000000pt" height="16.000000pt" viewBox="0 0 16.000000 16.000000"
 preserveAspectRatio="xMidYMid meet">
<metadata>
Created by potrace 1.11, written by Peter Selinger 2001-2013
</metadata>
<g transform="translate(0.000000,16.000000) scale(0.002336,-0.002336)"
fill="#000000" stroke="none">
<path d="M3275 5773 c-425 -52 -802 -312 -997 -688 -56 -108 -109 -260 -123
-355 -31 -211 -25 -375 21 -554 42 -164 125 -332 226 -461 88 -112 244 -253
348 -313 112 -66 301 -141 395 -158 17 -2 37 -7 45 -9 60 -17 251 -24 366 -12
493 48 922 387 1080 854 31 93 47 156 60 238 12 70 11 286 -1 365 -75 501
-437 916 -918 1049 -40 11 -88 23 -107 26 -19 4 -48 9 -65 12 -37 6 -289 11
-330 6z"/>
<path d="M5 4490 c-5 -8 2 -239 10 -300 2 -19 7 -64 10 -100 3 -36 8 -72 10
-80 2 -8 7 -40 10 -70 4 -30 9 -58 11 -61 2 -4 6 -24 10 -45 11 -75 77 -320
120 -446 93 -271 220 -529 381 -770 48 -72 93 -139 98 -147 6 -9 12 -18 15
-21 3 -3 21 -25 40 -50 154 -202 416 -462 615 -612 6 -4 24 -18 40 -31 323
-254 834 -492 1259 -588 178 -40 275 -57 446 -76 87 -10 598 -10 680 0 119 14
180 23 265 39 33 6 69 12 80 14 103 16 360 90 515 147 225 84 536 245 703 363
26 19 51 34 56 34 5 0 11 3 13 8 2 4 39 34 83 66 589 436 1046 1105 1241 1815
42 154 86 370 99 496 4 33 9 74 11 90 2 17 7 99 10 182 l6 153 -858 -3 -858
-2 -1 -50 c-2 -61 -15 -207 -20 -215 -2 -3 -6 -22 -9 -42 -31 -196 -138 -459
-258 -637 -255 -378 -677 -657 -1098 -727 -19 -3 -37 -7 -40 -9 -15 -9 -182
-19 -305 -19 -260 1 -549 74 -763 191 -87 47 -167 97 -170 105 -2 4 -8 8 -14
8 -6 0 -47 30 -92 66 -258 211 -445 478 -549 784 -55 160 -80 293 -92 485 -2
28 -3 53 -4 57 -1 10 -1700 8 -1706 -2z"/>
</g>
</svg>
